<?xml version="1.0" encoding="UTF-8"?>
<!DOCTYPE svg PUBLIC "-//W3C//DTD SVG 1.1//EN" "http://www.w3.org/Graphics/SVG/1.1/DTD/svg11.dtd">
<!-- Creator: CorelDRAW -->
<svg xmlns="http://www.w3.org/2000/svg" xml:space="preserve" width="77.4306mm" height="69.28mm" version="1.1" style="shape-rendering:geometricPrecision; text-rendering:geometricPrecision; image-rendering:optimizeQuality; fill-rule:evenodd; clip-rule:evenodd"
viewBox="0 0 4177.86 3738.08"
 xmlns:xlink="http://www.w3.org/1999/xlink"
 xmlns:xodm="http://www.corel.com/coreldraw/odm/2003">
 <defs>
  <style type="text/css">
   <![CDATA[
    .fil0 {fill:white}
    .fil26 {fill:#1C1B1D;fill-rule:nonzero}
    .fil17 {fill:#201F22;fill-rule:nonzero}
    .fil13 {fill:#212023;fill-rule:nonzero}
    .fil16 {fill:#242225;fill-rule:nonzero}
    .fil27 {fill:#252326;fill-rule:nonzero}
    .fil24 {fill:#262428;fill-rule:nonzero}
    .fil28 {fill:#272528;fill-rule:nonzero}
    .fil25 {fill:#29262A;fill-rule:nonzero}
    .fil23 {fill:#2B282C;fill-rule:nonzero}
    .fil15 {fill:#2B292D;fill-rule:nonzero}
    .fil10 {fill:#2D2B2F;fill-rule:nonzero}
    .fil11 {fill:#2F2C30;fill-rule:nonzero}
    .fil21 {fill:#2F2C31;fill-rule:nonzero}
    .fil22 {fill:#312F33;fill-rule:nonzero}
    .fil20 {fill:#322F33;fill-rule:nonzero}
    .fil12 {fill:#323034;fill-rule:nonzero}
    .fil14 {fill:#343135;fill-rule:nonzero}
    .fil19 {fill:#343136;fill-rule:nonzero}
    .fil9 {fill:#353236;fill-rule:nonzero}
    .fil18 {fill:#353237;fill-rule:nonzero}
    .fil2 {fill:#363338;fill-rule:nonzero}
    .fil1 {fill:#373439;fill-rule:nonzero}
    .fil8 {fill:#38353A;fill-rule:nonzero}
    .fil6 {fill:#F3F3F4;fill-rule:nonzero}
    .fil7 {fill:#FBFBFB;fill-rule:nonzero}
    .fil5 {fill:#FCFCFC;fill-rule:nonzero}
    .fil4 {fill:#FDFDFD;fill-rule:nonzero}
    .fil3 {fill:#FEFEFE;fill-rule:nonzero}
   ]]>
  </style>
 </defs>
 <g id="Capa_x0020_1">
  <metadata id="CorelCorpID_0Corel-Layer"/>
  <rect class="fil0" x="0" width="4177.85" height="3738.08"/>
  <polygon class="fil1" points="2117.72,1386.01 2245.68,1392.41 2367.23,1411.6 2475.99,1443.59 2616.74,1501.17 2693.51,1539.55 2712.7,1539.55 2725.5,1488.37 2731.9,1488.37 2731.9,1565.14 2808.66,1609.93 2917.42,1686.7 3000.6,1757.08 3038.98,1776.27 3090.16,1648.31 3109.36,1571.54 3115.76,1571.54 3115.76,1635.52 3090.16,1712.29 3090.16,1737.88 3070.97,1757.07 3058.18,1782.66 3058.18,1801.85 3109.36,1846.64 3192.52,1910.62 3224.52,1942.6 3250.11,1929.81 3269.3,1917.01 3256.5,1955.4 3192.52,2038.56 3134.94,2096.15 3083.77,2140.93 3026.18,2192.11 3045.38,2185.71 3090.16,2160.12 3128.55,2134.53 3205.32,2057.76 3262.9,1980.99 3352.47,1821.05 3384.46,1763.47 3390.86,1789.06 3314.08,1949 3256.51,2051.37 3224.52,2096.15 3256.51,2076.96 3320.48,2006.59 3410.05,1872.23 3416.45,1885.03 3378.06,1961.8 3326.88,2025.78 3262.9,2096.15 3243.71,2128.14 3294.89,2102.55 3358.87,2051.37 3403.65,2000.19 3429.25,1942.61 3435.65,1942.61 3442.04,1974.6 3454.84,1980.99 3467.64,1955.41 3531.61,1859.44 3570,1795.46 3576.4,1808.26 3544.41,1872.23 3480.43,1968.2 3422.85,2044.97 3358.88,2115.35 3333.29,2147.34 3326.89,2166.53 3365.28,2140.94 3390.87,2115.35 3416.45,2108.95 3435.65,2083.36 3448.44,2083.36 3461.23,2057.77 3499.62,2000.19 3506.02,2019.38 3480.43,2070.56 3461.24,2102.55 3454.84,2128.14 3474.03,2128.14 3486.83,2096.15 3538.01,2044.97 3595.59,1974.59 3608.39,1980.99 3570,2044.97 3544.4,2076.96 3493.23,2121.74 3442.04,2179.32 3397.26,2211.31 3403.66,2230.5 3442.04,2217.7 3518.81,2147.33 3563.6,2096.15 3563.6,2115.34 3570,2121.74 3614.79,2070.56 3633.98,2051.37 3621.18,2089.75 3550.8,2179.32 3518.81,2224.11 3570,2185.72 3621.18,2140.94 3659.56,2089.75 3665.96,2115.34 3717.15,2051.37 3793.91,1917.01 3800.31,1936.2 3749.13,2038.57 3685.15,2140.94 3659.56,2179.32 3665.96,2185.72 3710.75,2128.14 3723.54,2128.14 3710.74,2153.73 3659.56,2224.1 3614.77,2268.89 3512.41,2326.47 3416.44,2377.65 3320.48,2416.04 3250.1,2435.23 3288.49,2448.03 3294.89,2441.63 3371.66,2428.83 3474.02,2377.65 3499.62,2371.25 3467.63,2403.24 3435.63,2422.43 3442.03,2428.83 3486.82,2422.43 3550.8,2384.05 3621.17,2326.46 3672.35,2268.89 3697.94,2243.3 3685.15,2275.29 3633.97,2339.26 3582.78,2390.45 3576.39,2403.24 3659.56,2358.45 3787.51,2243.3 3793.91,2256.09 3768.32,2294.48 3710.74,2352.06 3646.76,2396.84 3544.4,2448.03 3454.83,2480.01 3294.89,2505.6 3288.49,2518.4 3422.84,2512 3544.4,2480.01 3653.16,2435.23 3729.93,2377.65 3813.1,2294.48 3813.1,2313.67 3755.52,2384.05 3678.75,2448.03 3665.95,2454.43 3659.55,2473.61 3793.91,2416.04 3845.09,2377.65 3857.88,2384.05 3819.49,2416.04 3838.7,2416.04 3864.28,2409.64 3832.3,2441.63 3793.91,2460.82 3781.12,2460.82 3781.12,2473.61 3697.95,2505.6 3576.39,2556.79 3429.25,2595.17 3320.49,2601.57 3166.94,2588.77 3038.99,2563.19 2955.82,2524.8 2936.62,2524.8 2879.04,2601.56 2847.05,2633.56 2789.47,2684.74 2674.32,2761.51 2584.75,2799.89 2450.4,2838.28 2296.85,2876.67 2188.09,2889.46 2028.15,2889.46 1842.61,2863.87 1573.91,2825.49 1573.91,2819.09 1657.08,2812.69 1631.49,2793.5 1561.11,2748.71 1516.33,2684.74 1477.94,2620.76 1452.35,2543.99 1439.55,2473.61 1439.55,2422.43 1452.35,2313.67 1349.99,2377.65 1286.01,2422.44 1254.02,2441.63 1151.66,2499.2 1042.9,2537.59 985.32,2550.39 902.15,2614.37 818.98,2671.95 729.41,2748.72 697.43,2780.7 710.22,2812.7 755.01,2812.7 863.77,2780.7 985.33,2735.92 1010.92,2729.52 1062.1,2729.52 1062.1,2748.71 850.97,2819.09 742.22,2851.08 575.88,2908.66 518.3,2934.25 473.51,2966.24 486.31,2934.25 537.49,2870.27 614.26,2793.5 684.64,2735.92 761.41,2665.55 831.78,2607.96 921.35,2531.2 953.34,2518.4 921.35,2486.41 844.58,2428.83 812.6,2390.45 818.99,2377.65 863.78,2428.82 902.16,2454.42 946.95,2473.61 998.12,2473.61 1004.52,2460.82 953.34,2448.02 953.34,2441.62 1049.3,2441.63 1049.3,2422.44 978.93,2416.04 946.94,2390.45 1004.52,2390.45 985.33,2371.25 991.72,2358.46 1017.32,2371.25 1132.47,2371.25 1132.47,2358.45 1042.91,2345.66 978.93,2313.67 972.53,2300.87 1004.52,2307.27 1100.48,2339.26 1177.25,2345.66 1170.86,2332.86 1100.48,2320.06 1126.07,2313.67 1126.07,2300.87 1094.08,2288.07 1030.1,2249.68 985.32,2224.09 908.55,2153.72 927.75,2153.73 972.53,2185.72 946.94,2128.14 953.34,2115.34 998.13,2185.72 1042.91,2224.11 1062.1,2230.51 1017.32,2172.93 1023.71,2153.73 1074.9,2217.72 1100.49,2236.91 1126.08,2236.9 1158.06,2256.09 1183.65,2262.49 1305.21,2268.89 1298.81,2249.7 1183.65,2230.51 1119.68,2204.92 1126.08,2230.51 1094.08,2198.52 1036.51,2128.14 1030.11,2083.36 1042.91,2096.15 1062.1,2134.54 1106.88,2172.93 1138.87,2185.72 1138.87,2172.93 1164.46,2179.33 1183.65,2192.12 1279.62,2217.72 1247.63,2179.33 1170.86,2134.54 1138.87,2096.15 1132.47,2070.56 1145.27,2070.56 1151.67,2096.15 1183.66,2108.95 1170.86,2089.75 1170.86,2057.77 1183.66,2070.56 1209.25,2128.14 1260.43,2160.13 1273.22,2160.13 1215.65,2064.16 1222.04,2051.36 1292.42,2147.33 1311.61,2160.13 1318.01,2134.54 1362.8,2198.51 1420.37,2204.91 1401.18,2172.93 1362.8,2147.34 1324.41,2115.34 1305.21,2108.95 1311.61,2083.36 1324.41,2096.15 1311.61,2057.77 1266.83,1968.2 1241.24,1865.84 1247.64,1853.04 1266.83,1910.62 1298.82,1987.39 1337.21,2051.36 1381.99,2121.74 1445.97,2160.13 1439.57,2128.14 1413.98,2115.34 1356.4,2044.96 1305.22,1942.6 1273.23,1859.43 1279.63,1840.24 1305.22,1891.42 1330.81,1955.4 1362.8,1980.99 1362.8,2000.18 1381.98,2000.19 1407.58,2051.37 1452.36,2083.36 1445.96,2044.97 1497.14,2096.15 1497.14,2108.95 1522.73,2121.74 1554.72,2147.34 1554.72,2115.34 1522.73,2083.36 1471.55,2006.59 1458.75,1993.79 1445.96,1910.62 1439.56,1859.44 1497.14,1936.21 1522.73,1974.6 1541.92,2038.58 1567.51,2076.96 1580.3,2070.56 1561.11,2000.19 1548.32,1980.99 1548.32,1923.42 1567.51,1865.84 1580.3,1872.23 1599.5,1929.82 1599.5,1955.41 1612.3,1955.4 1644.29,2019.38 1682.68,2076.96 1727.46,2089.75 1695.47,2038.58 1644.29,1936.21 1631.49,1872.23 1612.3,1757.08 1612.3,1699.49 1625.1,1718.69 1644.29,1840.24 1682.68,1949 1714.67,2012.98 1721.06,2012.98 1669.88,1846.64 1650.69,1718.69 1663.49,1699.49 1695.47,1853.04 1727.46,1942.61 1740.26,1949.01 1740.26,1872.23 1746.65,1872.23 1772.24,2025.78 1791.44,2057.77 1810.63,2070.56 1797.83,1987.39 1772.24,1878.63 1765.84,1795.47 1778.64,1814.66 1817.03,1987.39 1829.82,2012.98 1836.22,2006.59 1829.82,1929.82 1817.03,1840.25 1817.03,1693.1 1829.82,1641.92 1836.22,1641.91 1836.22,1763.47 1874.61,1961.8 1887.4,1980.99 1887.4,1897.82 1874.61,1801.85 1874.61,1673.9 1881.01,1584.33 1893.8,1609.92 1906.6,1853.03 1938.59,2012.98 1938.59,1885.02 1944.98,1885.03 1964.17,2006.58 1976.97,2012.98 1976.97,1801.86 1983.37,1801.86 1996.16,1859.44 2002.56,1865.84 2002.56,2019.38 2021.75,2019.38 2021.75,1961.8 2028.15,1961.8 2028.15,2038.57 2047.34,2038.57 2066.54,1776.27 2079.33,1776.27 2085.73,1789.07 2092.13,1949.01 2104.92,1949 2117.72,1878.63 2130.52,1731.48 2136.92,1577.94 2143.31,1577.94 2156.11,1622.73 2162.51,1629.12 2168.9,1744.28 2181.7,1680.31 2188.09,1680.3 2194.49,1757.07 2213.68,1795.46 2213.68,1840.24 2188.09,1929.81 2168.9,1993.79 2168.9,2025.78 2207.29,1968.2 2226.48,1891.43 2239.28,1757.08 2245.67,1757.08 2252.07,1897.82 2264.87,1878.63 2264.87,1712.29 2258.47,1629.12 2271.27,1641.92 2290.46,1725.09 2290.46,1885.03 2264.87,2000.19 2284.06,2000.19 2296.85,1974.6 2316.05,1923.42 2335.24,1859.44 2354.43,1840.25 2348.03,1885.03 2322.44,1968.2 2328.84,1981 2360.83,1904.23 2373.63,1853.05 2367.23,1782.67 2380.03,1801.86 2399.21,1821.06 2399.21,1693.1 2412.01,1718.69 2418.41,1859.44 2463.19,1725.09 2495.18,1603.53 2495.18,1565.14 2412.02,1533.15 2322.45,1520.36 2098.53,1520.36 1964.17,1533.16 1753.05,1577.94 1567.51,1635.52 1401.18,1699.5 1311.61,1744.28 1202.85,1808.26 1074.89,1897.83 1010.92,1955.41 998.12,1955.4 998.12,1968.2 985.33,1968.2 972.53,1993.79 882.96,2083.36 806.19,2185.72 755.01,2268.89 748.61,2249.7 767.81,2217.71 786.99,2172.93 850.97,2070.56 870.17,2044.97 882.96,2044.97 895.76,2019.38 998.12,1885.03 1055.7,1827.45 1106.88,1782.66 1177.26,1718.69 1247.63,1667.5 1311.61,1635.51 1394.78,1584.34 1580.32,1494.77 1663.48,1469.18 1778.64,1437.19 1887.4,1411.6 2021.75,1392.41 "/>
  <polygon class="fil2" points="2392.82,387.97 2507.98,387.97 2687.11,413.56 2840.66,445.55 3070.97,522.32 3173.34,573.5 3262.9,624.68 3230.92,592.69 3160.54,547.9 3064.58,503.12 2859.85,426.35 2859.85,413.55 2936.62,432.74 3070.97,477.53 3122.15,490.33 3211.72,541.5 3282.1,592.69 3442.04,701.45 3506.02,759.02 3589.19,829.4 3659.56,880.58 3749.13,957.35 3825.9,1040.52 3909.07,1142.88 3953.86,1194.07 4005.04,1245.24 4030.63,1277.23 4024.23,1290.03 3973.05,1251.64 3947.46,1226.06 3960.26,1251.64 3985.85,1277.23 3979.45,1296.43 3870.69,1219.66 3857.89,1219.67 3864.29,1238.86 3838.7,1226.07 3697.95,1149.29 3595.59,1098.12 3422.85,1027.74 3320.49,995.75 3320.49,982.95 3410.05,1002.14 3448.44,1002.15 3352.47,970.16 3269.3,950.97 3141.35,950.96 2904.64,976.55 2635.93,1027.73 2412.01,1066.12 2245.68,1098.11 2117.72,1142.89 2040.95,1174.88 2028.15,1168.48 2092.13,1130.1 2060.14,1136.5 1746.65,1251.65 1727.46,1245.25 1817.03,1187.68 1881.01,1149.29 1887.4,1136.49 1836.22,1149.29 1772.25,1187.68 1682.68,1258.05 1682.68,1270.85 1580.32,1309.23 1471.56,1360.42 1375.59,1405.2 1350,1418 1330.81,1411.6 1522.74,1315.63 1625.1,1258.06 1714.67,1194.08 1823.43,1123.7 1944.99,1053.33 2008.96,1008.54 1887.41,1066.12 1778.65,1130.1 1708.27,1174.88 1599.51,1245.26 1484.35,1309.23 1266.84,1417.99 1202.85,1443.59 1183.66,1437.19 1330.81,1360.42 1413.98,1309.23 1458.76,1283.65 1350,1334.83 1228.45,1398.81 1138.88,1443.59 1113.29,1437.19 1234.85,1373.22 1407.59,1283.65 1497.15,1219.67 1612.31,1136.5 1701.88,1072.52 1714.67,1072.52 1714.67,1059.72 1625.09,1104.51 1458.76,1232.46 1343.6,1296.44 1215.65,1360.42 1074.9,1437.19 1010.92,1469.18 991.72,1469.18 998.12,1449.98 1055.7,1424.39 1298.82,1296.44 1356.39,1264.45 1362.79,1251.65 1266.83,1290.04 1151.67,1354.02 1074.9,1398.81 1010.92,1424.39 1010.92,1411.6 1170.86,1322.03 1305.21,1245.26 1318.01,1245.26 1311.61,1232.46 1286.02,1226.07 1286.02,1213.27 1343.59,1181.28 1407.58,1130.1 1426.77,1110.91 1433.17,1091.72 1381.98,1117.31 1292.42,1194.08 1209.25,1258.05 1119.68,1322.03 985.33,1398.8 940.54,1430.79 914.95,1424.39 972.53,1386 1030.11,1354.01 1062.1,1328.43 1068.49,1315.63 1081.29,1315.63 1094.09,1290.04 1215.65,1200.48 1292.42,1149.29 1356.39,1104.51 1420.37,1053.33 1433.17,1053.33 1445.96,1027.74 1465.15,1021.34 1465.15,1008.54 1433.17,1021.34 1337.2,1091.72 1234.83,1162.09 1126.08,1245.26 1062.1,1290.05 953.34,1366.82 914.95,1398.81 889.36,1405.2 889.36,1386.01 857.37,1398.81 818.98,1430.8 787,1430.79 825.39,1379.61 870.17,1328.43 953.34,1264.45 1010.92,1219.67 1094.09,1162.09 1241.23,1066.12 1311.61,1014.94 1343.6,976.55 1305.21,989.35 1209.25,1053.33 1196.45,1046.93 1266.83,989.35 1298.82,957.36 1260.43,963.76 1158.06,1034.13 1062.1,1098.12 972.53,1155.69 908.55,1213.27 863.77,1258.06 818.98,1309.23 703.83,1424.39 671.83,1449.98 652.64,1443.59 697.43,1392.41 780.6,1296.44 806.19,1264.45 876.57,1213.27 927.74,1168.48 1017.31,1091.72 1119.68,995.75 1145.27,963.76 1164.46,963.76 1170.86,944.57 1247.63,899.78 1311.61,855 1407.58,797.42 1369.19,803.82 1222.04,886.98 1145.27,938.17 1126.08,931.77 1190.06,886.98 1350,791.02 1452.36,739.84 1529.13,714.24 1644.29,682.26 1682.68,669.46 1676.28,656.66 1618.7,663.06 1490.75,707.85 1356.39,759.03 1286.02,797.41 1170.86,880.59 1036.51,995.74 1023.71,995.75 1023.71,1008.55 1068.49,1008.55 1042.91,1040.53 991.72,1085.32 921.35,1149.3 870.17,1194.08 787,1264.46 716.62,1341.23 671.84,1392.41 595.07,1469.18 595.07,1449.99 659.05,1354.02 710.22,1290.05 767.81,1226.07 818.98,1162.09 870.17,1104.51 959.73,1034.13 1030.11,970.16 1042.91,970.16 1055.7,944.57 1068.5,931.77 1030.11,944.57 902.16,1059.73 863.77,1091.72 818.98,1142.89 723.02,1245.26 665.44,1309.23 601.46,1398.81 556.68,1469.18 524.69,1488.37 543.88,1417.99 582.27,1309.23 659.04,1181.28 614.25,1206.87 563.07,1296.44 518.29,1417.99 505.49,1437.19 511.89,1379.61 550.27,1277.24 614.25,1149.29 620.65,1168.48 627.05,1174.88 678.23,1117.3 748.6,1027.73 825.38,950.96 876.56,906.18 959.72,848.6 991.71,835.8 959.72,867.79 889.35,918.97 825.37,970.15 806.18,995.74 863.76,963.75 934.14,912.57 1004.51,867.79 1164.45,803.81 1349.99,714.24 1413.96,695.05 1593.1,643.87 1765.84,605.48 1874.6,579.89 1868.2,573.49 1714.65,579.89 1733.84,567.1 1964.16,528.71 2085.72,503.12 2130.5,490.32 2264.87,490.33 2264.87,477.53 2168.9,464.74 2168.9,458.34 2258.47,445.54 2284.06,432.74 2373.63,432.76 2584.75,445.55 2603.94,451.95 2603.94,426.36 2501.58,419.96 2386.42,407.16 2373.62,394.37 "/>
  <polygon class="fil3" points="2367.23,2217.7 2431.2,2236.9 2571.95,2256.09 2635.93,2288.08 2699.91,2332.86 2783.08,2384.05 2866.25,2416.03 2898.23,2467.21 2898.23,2505.6 2840.66,2563.18 2738.29,2633.56 2635.92,2684.74 2501.57,2748.71 2386.41,2793.5 2296.85,2819.09 2258.46,2825.49 2207.29,2825.49 2239.28,2793.5 2271.27,2767.91 2309.65,2716.73 2354.43,2614.36 2380.03,2512 2380.03,2313.67 2367.23,2249.7 "/>
  <polygon class="fil4" points="2111.32,2441.63 2213.68,2467.22 2277.66,2486.41 2328.84,2486.41 2309.65,2518.4 2239.28,2524.8 2284.06,2556.79 2284.06,2595.17 2303.25,2627.16 2296.85,2633.56 2252.07,2633.56 2213.68,2614.37 2252.07,2652.75 2252.07,2691.14 2226.48,2716.73 2181.69,2691.14 2220.08,2742.32 2232.88,2774.31 2194.49,2812.7 2168.9,2806.3 2136.91,2774.31 2143.31,2819.09 2143.31,2838.29 2130.51,2844.69 1919.39,2844.69 1727.46,2825.49 1714.66,2812.7 1708.26,2755.11 1695.47,2755.11 1682.68,2787.1 1663.48,2787.1 1644.29,2774.31 1644.29,2710.32 1644.29,2691.13 1631.49,2703.93 1586.71,2716.73 1580.31,2710.33 1580.31,2646.35 1605.9,2607.96 1618.7,2582.37 1586.71,2607.96 1567.52,2614.36 1561.12,2595.17 1535.53,2607.97 1535.53,2588.78 1561.12,2550.39 1573.92,2537.59 1561.12,2531.2 1573.92,2505.6 1644.29,2473.61 1676.28,2480.01 1663.48,2505.6 1593.11,2550.39 1586.71,2563.19 1637.89,2537.59 1676.28,2512.01 1701.87,2518.41 1689.07,2556.79 1657.08,2620.77 1695.47,2569.59 1708.27,2575.99 1708.27,2633.57 1689.07,2697.54 1746.65,2582.39 1765.84,2588.78 1765.84,2652.76 1759.44,2729.53 1765.84,2735.93 1785.04,2691.14 1797.83,2639.97 1810.63,2646.36 1817.03,2678.35 1836.22,2691.15 1842.62,2723.14 1842.62,2793.51 1861.81,2780.72 1861.81,2665.56 1868.21,2607.98 1881.01,2620.78 1893.8,2652.76 1912.99,2665.56 1925.79,2735.94 1925.79,2652.77 1932.19,2639.97 1944.98,2639.95 1983.37,2735.92 2008.96,2787.1 1970.57,2659.15 1976.97,2614.36 2008.96,2646.35 2060.14,2748.71 2008.96,2595.17 2002.56,2556.78 2021.75,2556.79 2098.53,2639.95 2117.72,2659.15 2053.74,2569.58 2060.14,2543.99 2117.72,2582.37 2156.1,2614.36 2117.72,2569.58 2098.53,2531.19 2098.53,2505.6 2136.91,2512 2194.49,2543.99 2130.51,2492.81 2104.92,2460.82 "/>
  <polygon class="fil3" points="2021.75,2256.09 2072.93,2256.09 2104.92,2268.89 2098.53,2332.87 2098.53,2403.24 2072.93,2454.43 2002.56,2531.2 1970.57,2556.79 1932.19,2569.58 1836.22,2569.58 1778.64,2550.39 1733.85,2505.6 1714.67,2460.82 1689.07,2409.64 1689.07,2326.47 1714.67,2300.88 1746.65,2307.28 1772.24,2409.64 1817.03,2454.43 1842.62,2467.22 1912.99,2467.22 1970.57,2441.63 1989.76,2435.23 1996.16,2409.64 2002.56,2275.29 "/>
  <polygon class="fil3" points="2514.37,1571.54 2565.55,1577.94 2693.51,1629.12 2699.91,1654.71 2655.12,1782.67 2616.73,1859.44 2603.94,1859.44 2623.13,1763.47 2610.34,1763.47 2597.54,1827.45 2565.55,1904.22 2527.16,1955.4 2514.37,1955.4 2533.56,1891.43 2559.16,1821.05 2565.55,1769.87 2520.77,1904.22 2495.18,1949.01 2482.39,1949 2482.39,1923.41 2450.4,2006.58 2444,2019.38 2418.41,2025.78 2412.01,1993.79 2437.6,1936.21 2482.39,1776.27 2507.97,1603.53 "/>
  <polygon class="fil4" points="2872.65,1725.09 2962.21,1776.27 3013.39,1814.65 2987.8,1859.44 2885.44,1968.2 2840.65,2012.98 2725.49,2096.15 2674.31,2128.14 2648.73,2128.14 2661.53,2102.55 2738.29,2051.37 2802.27,2000.19 2866.25,1942.61 2936.63,1865.84 2911.04,1885.03 2879.04,1917.02 2834.26,1968.2 2815.07,1974.6 2821.47,1942.61 2872.65,1840.24 2872.65,1821.05 2821.47,1929.81 2776.68,1993.79 2744.69,2019.38 2725.5,2012.98 2763.89,1942.6 2802.28,1885.03 2834.27,1814.65 2866.25,1731.48 "/>
  <polygon class="fil5" points="1145.27,829.41 1158.06,829.41 1151.67,848.6 1030.11,925.37 985.33,957.36 959.73,982.95 876.57,1046.93 818.98,1110.9 748.61,1200.47 703.83,1238.86 710.22,1213.27 742.21,1168.48 710.22,1200.47 633.45,1296.44 614.26,1322.03 595.07,1315.63 620.66,1264.45 665.44,1194.07 684.63,1155.69 767.81,1053.32 818.98,1008.54 870.17,976.55 876.57,989.34 870.17,1008.54 959.73,938.16 1068.49,867.78 "/>
  <polygon class="fil2" points="2904.63,2780.7 3013.4,2780.7 3096.56,2806.3 3166.94,2844.69 3230.92,2902.26 3262.9,2940.65 3262.9,2953.44 3237.32,2940.65 3179.74,2883.07 3115.76,2844.69 3032.59,2819.09 2949.42,2819.09 3058.18,2857.48 3122.15,2895.86 3192.53,2947.05 3211.72,2972.63 3179.73,2959.84 3109.36,2915.05 3045.38,2883.06 2987.8,2863.87 3006.99,2895.86 3058.17,2953.44 3122.15,3062.2 3134.95,3100.58 3128.55,3126.17 3077.37,3023.81 3013.39,2934.24 2955.81,2876.67 2904.63,2851.07 2776.68,2844.67 2751.09,2838.28 2751.09,2825.48 2853.45,2799.89 "/>
  <polygon class="fil2" points="1119.68,823.01 1132.47,842.2 1055.71,880.59 959.74,944.57 889.36,1002.15 857.37,1021.34 870.17,982.95 812.6,1021.34 799.79,1021.34 786.99,1046.93 755.01,1072.52 691.03,1155.69 652.64,1226.07 601.46,1309.23 588.67,1309.23 601.47,1270.85 639.85,1213.27 659.05,1181.28 614.26,1206.87 563.08,1296.44 518.29,1417.99 505.49,1437.19 511.89,1379.61 550.28,1277.24 614.26,1149.29 620.66,1168.48 627.06,1174.88 678.23,1117.3 748.61,1027.73 825.38,950.96 876.57,906.18 959.73,848.6 991.72,835.8 959.73,867.79 889.36,918.97 825.38,970.15 806.19,995.74 863.77,963.75 934.14,912.57 1004.52,867.79 "/>
  <polygon class="fil6" points="2744.69,1661.11 2783.08,1667.51 2847.06,1705.89 2859.85,1718.69 2853.45,1744.28 2847.06,1757.08 2827.86,1757.08 2808.67,1827.45 2757.49,1923.42 2731.9,1949.01 2712.7,1949 2719.1,1917.01 2725.5,1891.43 2706.3,1891.43 2693.51,1891.43 2699.91,1827.45 2725.5,1757.07 2738.29,1667.5 "/>
  <polygon class="fil7" points="3058.18,1853.04 3090.16,1865.84 3160.54,1904.22 3179.73,1923.41 3179.73,1955.4 3154.15,1949 3147.75,1942.6 3096.56,2044.97 3077.37,2064.16 3064.58,2064.16 3064.58,2038.57 3026.19,2089.75 2968.61,2140.93 2943.02,2140.94 2955.82,2115.34 3013.4,2057.77 3058.18,1993.79 3026.19,2025.78 2975.01,2083.36 2962.21,2083.36 2968.61,2051.37 3019.79,1949 "/>
  <polygon class="fil2" points="882.96,855 895.76,861.4 818.99,925.37 748.61,982.96 697.43,1034.13 633.46,1136.5 627.06,1117.31 601.47,1130.11 543.89,1232.47 511.9,1302.85 492.71,1366.82 479.91,1360.42 473.51,1302.85 499.1,1232.47 518.29,1206.88 518.29,1181.29 537.48,1162.1 537.48,1149.3 556.68,1136.5 607.86,1021.35 620.65,982.96 627.05,995.75 659.04,963.77 703.83,912.59 710.22,925.39 595.07,1098.12 588.67,1117.31 620.66,1085.32 710.22,982.96 774.2,925.38 870.17,861.4 "/>
  <polygon class="fil4" points="2220.08,2288.08 2264.87,2294.48 2264.87,2320.07 2290.46,2345.66 2284.06,2352.06 2296.85,2358.46 2290.46,2384.05 2252.07,2390.45 2309.65,2428.83 2296.85,2454.43 2322.44,2454.43 2316.05,2473.61 2264.87,2473.61 2188.09,2454.43 2124.12,2435.23 2124.12,2416.04 2213.68,2422.44 2149.71,2396.85 2149.71,2377.66 2136.91,2377.65 2130.51,2345.66 2162.5,2332.86 2188.09,2332.87 2194.49,2307.28 "/>
  <polygon class="fil1" points="633.46,816.62 639.85,829.41 582.27,938.17 531.1,1066.12 486.31,1200.48 447.92,1309.23 435.12,1373.22 422.33,1456.38 415.93,1456.38 415.93,1398.81 396.74,1405.2 396.74,1315.63 422.33,1174.89 460.72,1034.14 486.31,970.16 492.7,970.16 486.31,1027.74 447.92,1149.29 415.93,1290.04 415.93,1334.83 422.33,1334.83 454.32,1200.48 511.9,1027.74 582.27,880.59 "/>
  <path class="fil8" d="M1190.05 931.77m-6.39 6.39m-12.8 6.4l12.8 0 -12.8 25.59 -38.38 38.39 -6.4 19.19 38.38 -6.4 -31.99 31.99 -83.17 51.18 -76.77 51.18 -63.98 57.58 -44.79 44.78 -44.78 51.18 -115.16 115.16 -31.99 25.59 -19.19 -6.39 44.78 -51.18 83.17 -95.97 25.59 -31.99 70.37 -51.18 51.18 -44.79 89.57 -76.77 102.37 -95.97 25.59 -31.99 19.19 0 6.4 -19.19z"/>
  <polygon class="fil1" points="1893.8,2959.84 1932.19,2979.03 1970.57,3030.21 1996.16,3087.79 2008.96,3209.35 2021.76,3279.72 2028.15,3279.72 2028.15,3190.16 2002.56,3036.61 1983.37,2991.82 1964.18,2972.63 1970.57,2959.84 2002.56,2979.03 2028.15,3017.42 2040.95,3081.39 2047.35,3164.56 2047.35,3311.71 2028.16,3394.88 2008.96,3382.08 1996.17,3330.9 1983.37,3170.96 1964.18,3094.18 1932.19,3017.42 1893.8,2972.63 "/>
  <polygon class="fil3" points="1944.98,918.98 1976.97,918.98 1970.57,944.57 1925.79,982.95 1874.6,1008.54 1842.61,1059.72 1753.05,1110.9 1625.09,1187.67 1548.32,1232.46 1529.13,1226.06 1573.92,1181.28 1663.48,1123.7 1714.67,1098.1 1753.05,1072.52 1765.84,1072.52 1765.84,1053.33 1829.82,1021.34 1912.99,938.17 "/>
  <polygon class="fil2" points="2712.7,2902.26 2757.49,2902.26 2827.86,2940.65 2943.02,3055.81 3013.4,3158.17 3058.18,3247.74 3077.37,3298.92 3070.97,3324.51 3019.79,3222.15 2968.61,3138.98 2898.24,3049.41 2840.66,2998.23 2757.49,2940.65 2706.31,2921.46 "/>
  <polygon class="fil3" points="1497.14,918.98 1503.54,938.17 1433.17,995.74 1356.39,1053.33 1273.22,1117.3 1215.65,1155.69 1119.68,1226.07 1106.88,1226.07 1119.68,1200.48 1164.46,1155.69 1215.65,1110.9 1311.61,1040.53 1350,1014.94 1426.77,957.36 1477.95,925.37 "/>
  <polygon class="fil1" points="2962.21,2691.14 3013.4,2691.14 3090.16,2723.13 3192.53,2780.7 3256.51,2825.49 3294.9,2876.67 3346.08,2966.24 3339.68,2991.83 3301.29,2921.45 3243.71,2857.48 3147.75,2799.9 3045.38,2748.72 2962.21,2703.93 "/>
  <polygon class="fil2" points="1349.99,2838.29 1362.79,2838.29 1349.99,2876.67 1318.01,2934.25 1292.42,3036.61 1324.41,3004.63 1369.19,2934.25 1413.97,2895.86 1445.96,2889.46 1426.77,2921.45 1375.59,2966.24 1330.81,3023.82 1298.82,3075 1286.02,3119.79 1279.62,3266.93 1266.83,3273.33 1266.83,3023.82 1279.62,2947.05 1318.01,2870.28 "/>
  <polygon class="fil1" points="2469.59,2934.25 2507.98,2947.05 2571.95,3043.01 2623.14,3151.77 2655.13,3247.74 2667.92,3330.91 2667.92,3426.87 2655.13,3401.29 2623.14,3241.34 2571.95,3113.39 2514.38,3011.02 2469.59,2940.65 "/>
  <polygon class="fil3" points="3538.01,2140.94 3550.8,2140.94 3538.01,2172.93 3467.63,2243.3 3384.46,2300.88 3294.89,2345.67 3256.51,2358.46 3179.73,2358.46 3179.73,2345.66 3333.28,2275.29 3454.83,2224.1 3512.41,2179.32 "/>
  <polygon class="fil2" points="2168.9,2927.85 2220.08,2940.65 2290.46,2998.23 2328.84,3043.01 2380.03,3126.18 2424.81,3228.55 2444,3292.53 2444,3324.51 2431.2,3305.32 2399.21,3222.15 2341.64,3119.79 2290.46,3049.41 2239.28,2998.23 2175.3,2947.05 "/>
  <polygon class="fil2" points="1650.69,2902.26 1663.48,2902.26 1650.69,2972.64 1618.7,3132.58 1612.3,3190.16 1612.3,3407.68 1599.5,3388.49 1586.7,3279.73 1586.7,3145.38 1599.5,3043.01 1637.89,2915.06 "/>
  <polygon class="fil3" points="3032.59,1827.45 3045.39,1833.84 3038.99,1878.63 2987.8,1955.4 2917.43,2044.97 2879.04,2096.15 2847.05,2134.54 2802.27,2160.13 2789.47,2160.13 2802.27,2128.14 2847.06,2083.35 2891.84,2044.96 2936.63,1968.2 3026.19,1833.84 "/>
  <polygon class="fil3" points="1804.23,669.47 1849.01,669.47 1855.41,682.26 1772.24,707.86 1682.68,733.45 1650.69,727.05 1535.53,778.23 1497.14,791.02 1471.55,784.62 1529.13,746.24 1593.11,714.25 1695.47,682.26 1746.65,682.26 "/>
  <polygon class="fil9" points="332.76,1104.51 339.16,1104.51 345.56,1462.78 319.97,1469.18 307.17,1398.8 300.77,1386 281.58,1238.86 275.18,1168.48 287.98,1187.67 307.17,1277.24 313.57,1283.64 "/>
  <polygon class="fil1" points="1158.06,1072.52 1170.86,1078.92 1100.48,1136.5 991.72,1219.67 889.36,1296.44 818.98,1354.01 755.01,1411.59 742.21,1405.2 806.19,1341.22 844.58,1296.43 914.95,1238.85 1036.51,1155.69 1126.08,1098.1 "/>
  <polygon class="fil1" points="2565.56,2966.24 2603.94,2979.04 2642.33,3023.82 2674.32,3100.59 2706.31,3209.35 2731.9,3382.09 2731.9,3426.87 2725.5,3426.87 2693.51,3254.13 2642.33,3113.39 2603.94,3030.22 2578.35,2991.83 "/>
  <polygon class="fil1" points="2296.85,2902.26 2335.24,2927.85 2380.03,2991.83 2431.21,3087.8 2450.4,3145.37 2475.99,3260.53 2475.99,3305.32 2469.59,3305.31 2444,3202.95 2386.42,3068.6 2322.44,2966.23 2296.85,2915.05 "/>
  <polygon class="fil3" points="2719.1,1648.31 2738.29,1654.71 2719.1,1725.09 2661.53,1891.43 2623.14,1980.99 2591.15,2019.38 2571.95,2012.98 2584.75,1968.2 2616.74,1917.01 2661.53,1821.05 2712.71,1654.71 "/>
  <polygon class="fil2" points="2591.15,2927.85 2642.33,2927.85 2712.7,2947.05 2808.67,2998.22 2872.65,3049.41 2904.64,3081.39 2898.24,3094.19 2827.86,3036.61 2751.09,2991.82 2687.11,2972.63 2763.89,3126.18 2757.49,3145.37 2725.5,3094.19 2667.92,2966.24 2591.15,2934.25 "/>
  <polygon class="fil3" points="1900.2,2256.09 1938.58,2275.29 1938.58,2332.86 1919.39,2352.06 1861.82,2358.45 1829.82,2326.46 1836.22,2288.08 1861.82,2268.89 "/>
  <polygon class="fil1" points="2053.74,2934.25 2072.93,2940.65 2117.72,3023.82 2143.31,3170.96 2149.71,3286.12 2143.31,3337.31 2130.51,3330.91 2124.11,3279.72 2117.72,3145.37 2092.13,3062.2 2053.74,2953.44 "/>
  <polygon class="fil3" points="1925.79,682.26 1951.38,688.66 1944.98,701.46 1829.82,752.63 1714.67,816.62 1650.69,855 1625.09,861.4 1631.49,842.21 1765.85,752.64 1855.42,701.46 "/>
  <path class="fil2" d="M1190.05 931.77m-6.39 6.39m-12.8 6.4l12.8 0 -12.8 25.59 -38.38 38.39 -6.4 19.19 38.38 -6.4 -31.99 31.99 -83.17 51.18 -76.77 51.18 -19.19 0.01 25.59 -31.99 51.18 -44.78 83.17 -76.77 31.99 -38.39 19.19 0 6.4 -19.19z"/>
  <polygon class="fil1" points="1721.06,2927.85 1733.85,2927.85 1727.46,2966.24 1689.07,3055.81 1676.27,3100.59 1644.29,3273.33 1637.89,3273.32 1637.89,3164.56 1657.08,3062.2 1689.07,2972.63 "/>
  <polygon class="fil1" points="2840.66,2921.45 2879.04,2934.25 2943.02,2991.83 3007,3062.2 3064.58,3158.17 3090.17,3222.15 3083.77,3241.34 3000.6,3087.8 2930.23,3011.03 2834.26,2934.25 "/>
  <polygon class="fil3" points="2603.94,579.9 2783.08,579.9 2770.28,605.49 2603.94,611.89 2565.55,624.69 2527.16,618.29 2527.16,592.7 "/>
  <polygon class="fil10" points="1535.53,2934.25 1541.93,2947.05 1477.95,3036.61 1458.76,3094.19 1452.36,3260.53 1439.56,3254.13 1433.17,3228.55 1433.17,3113.39 1452.35,3030.22 1484.34,2972.64 1522.73,2940.65 "/>
  <polygon class="fil3" points="3211.72,1955.4 3230.91,1961.8 3205.32,2012.98 3160.54,2057.77 3115.75,2083.36 3077.37,2089.75 3090.16,2057.77 3154.14,2000.19 "/>
  <polygon class="fil2" points="1170.86,2844.69 1222.04,2844.69 1234.83,2863.87 1170.86,2883.06 1081.29,2947.05 1036.51,2991.83 985.33,3062.2 972.53,3075 978.93,3043.01 1042.91,2953.44 1094.08,2902.27 1164.46,2851.08 "/>
  <polygon class="fil3" points="3397.26,2128.14 3410.05,2128.14 3403.65,2153.73 3378.06,2185.72 3301.29,2243.3 3243.71,2268.89 3198.93,2275.29 3198.93,2256.09 3262.9,2217.7 3320.49,2192.12 3390.86,2140.94 "/>
  <polygon class="fil1" points="2399.21,2947.05 2431.2,2953.44 2482.39,2998.23 2520.77,3055.81 2546.36,3126.18 2559.16,3170.97 2559.16,3234.94 2546.36,3215.75 2520.77,3119.79 2488.79,3043.02 2475.99,3017.43 2450.4,3004.63 2399.21,2959.84 "/>
  <polygon class="fil3" points="1535.53,2300.88 1586.71,2300.88 1618.7,2313.68 1618.7,2326.47 1586.71,2332.87 1631.49,2345.67 1631.49,2358.47 1605.91,2371.26 1541.93,2371.25 1503.54,2345.66 1503.54,2332.86 1529.13,2326.46 "/>
  <polygon class="fil3" points="3115.76,835.81 3160.54,835.81 3218.12,855 3224.52,867.79 3115.76,874.19 3032.59,880.59 3019.79,855 3051.78,842.2 "/>
  <polygon class="fil3" points="2373.63,547.91 2552.76,547.91 2597.54,560.71 2597.54,567.11 2565.56,573.51 2348.04,573.5 2341.64,560.71 "/>
  <polygon class="fil11" points="409.53,970.16 415.93,995.75 396.74,1091.72 383.94,1213.27 371.15,1430.79 364.75,1430.79 364.75,1174.88 390.34,1027.73 "/>
  <polygon class="fil3" points="2085.73,1053.33 2111.32,1053.33 2104.92,1072.52 1938.58,1155.69 1919.39,1155.69 1932.19,1130.1 1964.18,1104.51 2047.34,1066.12 "/>
  <polygon class="fil3" points="2488.79,778.23 2520.77,778.23 2520.77,803.82 2360.83,855 2328.84,855 2341.64,829.41 2380.03,810.22 2456.8,797.42 "/>
  <polygon class="fil12" points="1772.24,2966.24 1791.44,2985.43 1810.63,3075 1810.63,3215.75 1797.83,3196.56 1778.64,3055.81 1765.84,3017.42 1765.84,2972.63 "/>
  <polygon class="fil13" points="1273.22,1309.23 1298.82,1315.63 1209.25,1366.82 1106.88,1417.99 1010.92,1469.18 991.72,1469.18 998.12,1449.98 1055.7,1424.39 1177.26,1360.42 "/>
  <polygon class="fil3" points="2316.05,733.45 2348.04,739.84 2341.64,759.03 2239.27,797.42 2207.29,810.22 2162.5,810.22 2175.3,791.02 2271.27,752.63 "/>
  <polygon class="fil3" points="2706.3,886.99 2763.89,886.99 2738.29,906.18 2584.75,957.36 2571.95,957.36 2584.75,931.77 2648.73,899.78 "/>
  <polygon class="fil3" points="1695.47,950.96 1714.67,950.96 1708.27,976.55 1573.91,1066.12 1554.72,1066.12 1567.52,1040.53 1618.7,995.75 "/>
  <polygon class="fil3" points="2648.73,791.02 2706.3,797.42 2706.3,810.22 2610.34,842.21 2539.96,855 2571.95,823.01 2623.13,797.42 "/>
  <polygon class="fil3" points="1234.83,925.37 1260.43,931.77 1215.64,976.56 1151.67,1027.74 1126.08,1027.74 1132.47,1002.15 1183.65,950.97 "/>
  <polygon class="fil1" points="486.31,970.16 492.7,970.16 486.31,1027.74 447.92,1149.29 422.33,1264.45 409.53,1270.85 415.93,1200.48 460.72,1034.13 "/>
  <polygon class="fil14" points="1356.39,1309.23 1375.58,1315.63 1343.59,1341.23 1138.87,1443.59 1113.28,1437.19 1234.83,1373.22 "/>
  <polygon class="fil3" points="3045.39,2096.15 3051.78,2121.74 3026.19,2160.13 2968.61,2198.51 2936.63,2204.91 2949.42,2179.32 2981.41,2147.34 3026.19,2108.95 "/>
  <polygon class="fil3" points="2220.08,906.18 2232.88,906.18 2232.88,925.37 2156.11,976.55 2092.13,1021.34 2079.33,1021.34 2092.13,995.75 2136.92,950.96 2200.89,912.58 "/>
  <polygon class="fil3" points="3000.6,643.87 3064.58,650.27 3102.96,675.87 3090.16,688.66 2975.01,682.26 2949.42,663.07 2968.61,650.27 "/>
  <polygon class="fil3" points="2418.41,950.96 2456.8,950.96 2456.8,970.15 2328.84,1027.73 2316.05,1027.74 2328.84,995.75 "/>
  <polygon class="fil3" points="2789.47,816.62 2847.05,816.62 2879.04,829.41 2859.85,848.6 2725.5,855 2744.69,835.81 "/>
  <polygon class="fil15" points="1228.44,1290.04 1241.23,1290.04 1241.23,1302.84 1087.69,1392.41 1010.92,1424.39 1010.92,1411.6 1170.86,1322.03 "/>
  <polygon class="fil3" points="1593.11,2377.65 1644.29,2377.65 1663.48,2390.45 1663.48,2403.24 1625.09,2416.04 1554.72,2422.44 1554.72,2396.85 "/>
  <polygon class="fil3" points="1733.85,874.19 1759.44,880.59 1701.87,918.98 1644.29,950.97 1625.09,963.76 1605.91,957.37 1669.88,899.79 "/>
  <polygon class="fil15" points="1541.93,1302.84 1561.12,1302.84 1554.72,1322.03 1407.58,1392.41 1349.99,1417.99 1330.8,1411.6 1522.73,1315.63 "/>
  <polygon class="fil3" points="3435.65,810.22 3467.63,816.62 3538.01,867.79 3550.8,880.59 3544.4,899.78 3480.43,861.39 3435.65,823.01 "/>
  <polygon class="fil1" points="1426.77,2889.46 1445.96,2895.86 1362.79,2979.03 1343.59,3004.62 1337.2,2985.43 1375.58,2927.85 1413.97,2895.86 "/>
  <polygon class="fil16" points="409.53,970.16 415.93,995.75 396.74,1091.72 383.94,1174.88 371.15,1187.68 371.15,1123.7 403.13,976.56 "/>
  <polygon class="fil17" points="1132.47,1386.01 1151.67,1392.41 1049.3,1449.98 1010.91,1469.18 991.72,1469.18 998.12,1449.98 1055.7,1424.39 "/>
  <polygon class="fil1" points="2674.32,2972.63 2687.11,2972.63 2763.89,3126.18 2757.49,3145.37 2725.5,3094.19 2674.32,2985.43 "/>
  <polygon class="fil18" points="978.93,835.81 991.72,842.2 927.75,893.38 863.77,938.17 844.58,938.17 908.56,880.59 "/>
  <polygon class="fil19" points="486.31,970.16 492.7,970.16 486.31,1027.74 460.72,1104.51 447.92,1104.51 454.32,1059.72 "/>
  <polygon class="fil1" points="3090.16,2633.56 3122.15,2639.96 3179.73,2678.34 3205.32,2710.33 3173.34,2697.54 3090.16,2639.96 "/>
  <polygon class="fil20" points="1222.04,1379.61 1234.83,1386.01 1215.65,1405.2 1138.87,1443.59 1113.28,1437.19 "/>
  <polygon class="fil21" points="1286.02,1386.01 1311.61,1386.01 1311.61,1398.81 1202.85,1443.59 1183.66,1437.19 "/>
  <polygon class="fil22" points="1241.23,855 1254.03,867.8 1145.27,938.17 1126.08,931.77 1190.06,886.99 "/>
  <polygon class="fil23" points="3032.59,3126.18 3051.78,3132.58 3090.16,3222.15 3083.77,3241.34 3032.59,3145.37 "/>
  <polygon class="fil22" points="550.29,1296.44 556.68,1315.63 518.3,1417.99 505.5,1437.19 511.9,1379.61 537.49,1309.23 "/>
  <polygon class="fil24" points="3569.99,1795.46 3576.39,1808.25 3544.4,1872.23 3518.81,1910.62 3506.02,1910.62 3518.81,1878.63 "/>
  <polygon class="fil25" points="1010.92,1366.82 1023.71,1366.82 1023.71,1379.61 953.34,1418 940.54,1430.8 914.95,1424.4 972.53,1386.01 "/>
  <polygon class="fil26" points="1228.44,1290.04 1241.23,1290.04 1241.23,1302.84 1164.46,1347.62 1145.27,1347.62 1145.27,1334.83 "/>
  <polygon class="fil3" points="3582.79,893.38 3621.18,899.78 3640.37,925.37 3640.37,938.17 3608.38,931.77 3582.79,906.18 "/>
  <polygon class="fil27" points="3793.91,1917.01 3800.31,1936.2 3761.92,2019.38 3749.13,2019.38 3768.32,1961.8 "/>
  <polygon class="fil28" points="3294.89,2895.86 3307.69,2895.86 3346.08,2966.24 3339.68,2991.83 3301.29,2921.45 "/>
  <polygon class="fil3" points="1164.46,2428.83 1177.26,2428.83 1164.46,2454.42 1145.27,2467.22 1119.68,2460.82 1138.87,2435.23 "/>
  <polygon class="fil1" points="1580.31,2979.03 1586.71,2991.83 1541.93,3055.81 1535.53,3036.61 1567.51,2985.44 "/>
 </g>
</svg>
